<?xml version="1.0" encoding="utf-8"?>
<!-- Generator: Adobe Illustrator 21.0.0, SVG Export Plug-In . SVG Version: 6.00 Build 0)  -->
<svg version="1.1" id="Calque_1" xmlns="http://www.w3.org/2000/svg" xmlns:xlink="http://www.w3.org/1999/xlink" x="0px" y="0px"
	 viewBox="0 0 512 512" style="enable-background:new 0 0 512 512;" xml:space="preserve">
<style type="text/css">
	.st0{fill:#FFFFFF;}
</style>
<g>
	<polygon class="st0" points="318.7,3 318.7,129.8 445.5,129.8 	"/>
	<path class="st0" d="M318.7,161.6c-17.5,0-31.7-14.2-31.7-31.8V3H112.6C86.3,3,65,24.3,65,50.6v412.3c0,26.3,21.3,47.6,47.6,47.6
		h285.3c26.3,0,47.6-21.3,47.6-47.6V161.6H318.7z M128.4,74.4c0-4.3,3.6-7.9,7.9-7.9h79.3c4.3,0,7.9,3.6,7.9,7.9v15.8
		c0,4.3-3.5,7.9-7.9,7.9h-79.3c-4.3,0-7.9-3.6-7.9-7.9V74.4z M128.5,153.7v-15.9c0-4.3,3.6-7.9,7.9-7.9h79.3c4.3,0,7.9,3.5,7.9,7.9
		v15.9c0,4.3-3.5,7.9-7.9,7.9h-79.3C132,161.6,128.4,158,128.5,153.7z M329.1,451.3c-16.3,7.7-33.8,10.3-51.6,8.8
		c-46.6-3.8-80.6-26.7-101.4-68.9c-2.4-4.9-5.5-7-11-6c-6,1.1-12,0.5-17.8-1.2c-9.2-2.7-13.8-10.1-12.6-19.9
		c1.1-9.1,7.5-15,16.7-15.4c3.3-0.2,6.7-0.2,10-0.1c4,0.1,3-2.8,3-4.9c0-2.1,0.9-5-3.1-4.8c-3.2,0.1-6.3,0.1-9.5,0
		c-10-0.4-16.9-7.2-17.4-17c-0.5-10.4,5.9-18.1,16.2-19.2c4.8-0.5,9.7-0.7,14.5-0.4c4.4,0.3,6.3-1.3,8-5.3
		c16.1-38.7,44.8-62.9,85.5-72.6c23-5.5,45.7-3.2,67.8,4.8c10.8,3.9,15.1,12.6,11.7,22.9c-3.5,10.5-12.3,15-23.4,11.6
		c-20.7-6.2-41.2-7.7-61.6,1c-17.6,7.5-32,18.8-41.5,36.9c29.3,0,57.8,0.1,86.2,0c8.6,0,18.9,6.5,21.8,14.6
		c1.6,4.4,0.8,8.5-1.9,12.3c-5.9,8.2-14.1,11.1-23.9,10.7c-29.5-1.1-59-0.1-88.5-0.5c-4.4-0.1-2.9,2.9-3.2,5.1
		c-0.5,3.3,0.8,4.2,4.1,4.2c27.5-0.1,55-0.1,82.5-0.1c2.2,0,4.3,0.1,6.5,0.4c10.6,1.8,16.4,8.3,16.2,18.2
		c-0.2,9.8-6.8,16.9-17.2,18.1c-2.5,0.3-5,0.3-7.5,0.3c-21.8,0-43.7,0-65.5,0c-1.8,0-3.6,0-6.3,0c3.2,5.9,7,10.4,11.3,14.4
		c24.2,22.1,52,29.1,83.7,19.8c2.4-0.7,4.8-1.4,7.2-1.9c10-1.9,17.8,2.4,21.1,11.5C341.6,438.5,338.6,446.8,329.1,451.3z"/>
</g>
</svg>
