<svg width="291" height="424" viewBox="0 0 291 424" fill="none" xmlns="http://www.w3.org/2000/svg">
<path d="M48.7 57.3002C49.3 59.8002 49.1 62.7002 46.6 65.9002C43 70.5002 37.2 71.2002 33 67.9002C28.8 64.6002 28.4 58.8002 31.9 54.3002C33.9 51.8002 36.4 50.4002 39.4 50.2002V53.8002C37.7 53.9002 36 54.6002 34.6 56.3002C32.6 58.8002 32.7 62.3002 35.6 64.6002C38.8 67.1002 42.3 66.0002 44.1 63.7002C45.5 61.9002 45.8 60.0002 45.2 58.2002L48.7 57.3002Z" fill="white"/>
<path d="M59.3 52.2998C54.9 56.3998 49.1 56.0998 45.6 52.1998C42.2 48.5998 42.3 42.6998 46.7 38.5998C51.1 34.4998 56.9 34.8998 60.3 38.5998C63.8 42.3998 63.7 48.1998 59.3 52.2998ZM48.9 40.9998C46.6 43.0998 46 46.5998 48.6 49.3998C51.2 52.1998 54.8 51.8998 57.1 49.7998C59.5 47.4998 59.9 44.1998 57.3 41.3998C54.7 38.5998 51.3 38.7998 48.9 40.9998Z" fill="white"/>
<path d="M74.0001 25.2004C74.0001 28.4004 74.1001 32.1004 74.3001 35.2004L74.0001 35.4004C70.9001 33.8004 67.7001 32.3004 64.8001 31.3004L71.6001 41.7004L68.5001 43.7004L58.7001 28.6004L61.6001 26.7004C62.1001 26.4004 62.3001 26.4004 62.7001 26.5004C65.0001 27.2004 68.1001 28.5004 71.0001 29.9004C70.9001 27.0004 70.8001 23.3004 71.0001 20.7004L74.5001 18.4004L84.3001 33.5004L81.0001 35.7004L74.0001 25.2004Z" fill="white"/>
<path d="M91.6001 30.0004L88.0001 31.7004L80.1001 15.6004L83.7001 13.9004L91.6001 30.0004Z" fill="white"/>
<path d="M102.2 9.80039L97.4001 11.6004L102.6 25.6004L98.9001 27.0004L93.7 13.0004L88.9001 14.8004L87.8 11.9004L101.2 6.90039L102.2 9.80039Z" fill="white"/>
<path d="M114.9 0.200195V0.300194L113.3 3.7002L117.6 2.7002L118.3 5.6002L109.9 7.6002L110.9 11.7002L118.6 9.80019C118.5 10.6002 118.3 11.6002 118.2 12.3002C118.1 13.0002 117.8 13.2002 117.2 13.3002L111.6 14.6002L112.6 18.8002C112.7 19.1002 112.9 19.2002 113.1 19.1002L121.2 17.1002L121.9 20.0002L109.5 23.0002L105.3 5.50019L109.7 4.40019L111.1 0.900192L114.9 0.200195Z" fill="white"/>
<path d="M149.4 18L147.2 18.1C146.6 18.1 146.3 18 146 17.5C143.1 13.6 139.3 9.30001 136 6.10001L136.4 18.4L132.6 18.5L132 0.5L134.7 0.400002C135.3 0.400002 135.6 0.500002 136 0.900002C138.7 3.2 142.6 7.2 145.4 10.7L145.1 0.100006L148.9 0L149.4 18Z" fill="white"/>
<path d="M151.3 17.9996C154 12.8996 157.9 5.49961 160.6 1.09961L165.3 1.69961C165.8 1.79961 165.9 1.9996 166.1 2.3996C167.6 7.0996 169.5 14.4996 170.9 20.4996L166.5 19.8996C166.2 18.3996 165.8 16.6996 165.5 14.9996L157.9 13.9996C157.1 15.5996 156.3 17.1996 155.7 18.4996L151.3 17.9996ZM162.7 4.59961C161.7 6.29961 160.4 8.69961 159.2 11.1996L164.7 11.8996C164.1 9.1996 163.5 6.49961 162.9 4.59961H162.7Z" fill="white"/>
<path d="M187.5 9.60001L182.5 8.3L178.8 22.7L175 21.7L178.7 7.3L173.7 6L174.5 3L188.3 6.60001L187.5 9.60001Z" fill="white"/>
<path d="M189.7 26.2996L186 24.9996L192.1 8.09961L195.8 9.3996L189.7 26.2996Z" fill="white"/>
<path d="M201 31.6999C195.6 28.9999 193.9 23.4999 196.2 18.7999C198.4 14.2999 203.9 12.2999 209.3 14.9999C214.7 17.6999 216.4 23.2999 214.1 27.6999C211.8 32.3999 206.3 34.2999 201 31.6999ZM207.8 17.8999C205 16.4999 201.5 17.1999 199.9 20.5999C198.2 24.0999 199.7 27.2999 202.5 28.6999C205.5 30.1999 208.8 29.3999 210.5 25.8999C212.1 22.4999 210.7 19.3999 207.8 17.8999Z" fill="white"/>
<path d="M225.7 47L223.9 45.7C223.4 45.4 223.3 45.1 223.3 44.5C223.4 39.7 223 33.9 222.3 29.4L215.2 39.3L212.2 37.1L222.7 22.5L224.9 24.1C225.4 24.4 225.5 24.8 225.6 25.2C226.3 28.7 226.9 34.2 227.1 38.7L233.3 30.1L236.3 32.3L225.7 47Z" fill="white"/>
<path d="M227.3 48.2C232.5 45.8 240.2 42.4 245 40.5L248.4 43.8C248.7 44.1 248.7 44.4 248.6 44.8C246.9 49.4 243.9 56.5 241.3 62.1L238.1 59C238.7 57.6 239.5 56.1 240.3 54.5L234.9 49.1C233.3 49.9 231.7 50.6 230.4 51.3L227.3 48.2ZM244.5 44.6C242.7 45.3 240.2 46.5 237.7 47.7L241.6 51.6C242.8 49 243.9 46.5 244.5 44.6Z" fill="white"/>
<path d="M249.4 73.0998L242.2 63.6998L256.5 52.7998L258.9 55.8998L247.4 64.6998C247.2 64.8998 247.1 65.0998 247.3 65.2998L251.9 71.1998L249.4 73.0998Z" fill="white"/>
<path d="M2.10009 123.9C3.00009 117.9 7.6001 114.6 12.8001 115.3C17.7001 116 21.4001 120.6 20.5001 126.5C19.6001 132.5 14.9001 135.8 9.9001 135.1C4.7001 134.4 1.20009 129.8 2.10009 123.9ZM17.2001 126.1C17.6001 123 15.9001 119.9 12.2001 119.4C8.40009 118.9 5.8001 121.3 5.4001 124.4C4.9001 127.7 6.70008 130.6 10.5001 131.1C14.2001 131.6 16.7001 129.3 17.2001 126.1Z" fill="white"/>
<path d="M0.800049 150.7L1.00003 138.8L19 139.1L18.9001 143.1L4.40005 142.9C4.10005 142.9 3.90005 143.1 3.90005 143.3L3.80005 150.8L0.800049 150.7Z" fill="white"/>
<path d="M2.10007 162.7L1.70007 158.8L7.30008 158.2C10.8001 155.4 15.0001 152.3 18.8001 150L19.3001 154.3C16.3001 155.9 13.3001 158 11.2001 159.8C13.8001 161.1 17.0001 162.5 20.3001 163.4L20.8001 167.6C16.5001 166.1 11.8001 164.1 7.80008 162.1L2.10007 162.7Z" fill="white"/>
<path d="M19.7001 185.2C16.7001 184.2 13.1001 183.2 10.1001 182.5L10.0001 182.1C12.4001 179.6 14.8001 177 16.7001 174.6L4.70007 177.9L3.70007 174.3L21.0001 169.5L21.9001 172.8C22.1001 173.3 22.0001 173.6 21.8001 173.9C20.4001 175.8 18.3001 178.4 16.1001 180.8C19.0001 181.6 22.4001 182.6 24.9001 183.6L26.0001 187.6L8.70007 192.4L7.60007 188.6L19.7001 185.2Z" fill="white"/>
<path d="M17.7001 199.699L12.8001 201.999L11.2001 198.399L27.5001 190.899L30.6001 197.699C32.5001 201.799 31.7001 205.399 28.2001 206.999C24.7001 208.599 21.1001 206.999 19.2001 202.999L17.7001 199.699ZM26.4001 195.699L20.5001 198.399L21.8001 201.299C22.8001 203.399 24.5001 204.099 26.5001 203.199C28.3001 202.399 28.7001 200.599 27.8001 198.599L26.4001 195.699Z" fill="white"/>
<path d="M21.5 218.899L19.5 215.499L35 206.399L37 209.799L21.5 218.899Z" fill="white"/>
<path d="M35.8001 235.199L35.1 238.599L31.5 237.399L32.3001 233.799C31.2001 233.099 30.2001 232.2 29.4001 231C25.8001 226.2 26.7001 220.499 30.9001 217.299C34.9001 214.299 40.7001 214.999 44.3001 219.799C47.9001 224.599 46.9001 230.399 42.9001 233.299C40.7001 234.999 38.2001 235.599 35.8001 235.199ZM41.5 221.899C39.6 219.399 36.2001 218.399 33.2001 220.699C30.1001 222.999 30.1001 226.599 31.9001 229.099C33.9001 231.799 37.2001 232.499 40.3001 230.199C43.4001 227.899 43.5 224.499 41.5 221.899Z" fill="white"/>
<path d="M55.9001 248.7C52.4001 252.3 48 251.6 44.8 248.4C41.6 245.4 40.7 240.9 44.2 237.3L51.6 229.6L54.4001 232.3L47 240C45 242.1 45.4 244.5 47 246.1C48.7 247.7 51 248 53.1 245.9L60.5 238.2L63.3 240.9L55.9001 248.7Z" fill="white"/>
<path d="M71.6 256.1C71 256.5 70 257.1 69.5 257.4C68.9 257.7 68.6 257.6 68.1 257.3L63.4001 253.9L60.9001 257.4C60.7001 257.6 60.8 257.9 61 258L67.8 262.9L66.1 265.3L55.8 257.8L66.2 243.3L76.4001 250.7L74.6 253.1L67.6 248L65.1 251.4L71.6 256.1Z" fill="white"/>
<path d="M93.2 267.6C92.6 268.1 91.8 268.8 91.3 269.2C90.8 269.6 90.4001 269.6 89.9001 269.4L84.7 266.9L82.9001 270.8C82.8001 271.1 82.9 271.3 83.1 271.4L90.6 275L89.3 277.7L77.8 272.2L85.5 256L96.8 261.4L95.5 264.1L87.7 260.4L85.9001 264.2L93.2 267.6Z" fill="white"/>
<path d="M110.7 269.4L105.8 267.8L101.1 281.9L97.3001 280.6L102 266.5L97.1001 264.9L98.1001 262L111.6 266.5L110.7 269.4Z" fill="white"/>
<path d="M118.3 281.899C119.6 283.099 122.1 284.199 123.8 284.499C126.1 284.799 127.6 284.399 127.8 282.999C128 281.899 127.2 281.199 125.5 280.199L122.8 278.599C120.7 277.399 119 275.799 119.4 272.999C119.8 270.199 122.6 268.499 127.6 269.199C129.6 269.499 131.7 270.399 132.9 271.199L132.5 274.299C131 273.199 129.2 272.399 127.3 272.099C124.8 271.699 123.7 272.499 123.5 273.599C123.3 274.699 124 275.299 125.6 276.199L128.3 277.799C131 279.399 132.3 280.999 132 283.299C131.5 286.599 128.3 288.099 123.7 287.499C121.7 287.199 119.2 286.299 118 285.199L118.3 281.899Z" fill="white"/>
<path d="M140.1 283.2L140 288.6L136 288.5L136.3 270.5L143.8 270.6C148.3 270.7 151.2 272.9 151.2 276.8C151.1 280.7 148.2 283.2 143.7 283.2H140.1ZM140.3 273.7L140.2 280.2L143.4 280.3C145.7 280.3 147.1 279.1 147.2 276.9C147.2 275 145.8 273.8 143.5 273.8L140.3 273.7Z" fill="white"/>
<path d="M164.8 287.7C158.8 288.5 154.3 285 153.6 279.7C152.9 274.8 156.3 270 162.3 269.2C168.3 268.4 172.8 272.1 173.5 277C174.1 282.3 170.7 286.9 164.8 287.7ZM162.7 272.6C159.6 273 157.1 275.5 157.6 279.3C158.1 283.1 161.2 284.9 164.3 284.5C167.6 284.1 169.9 281.5 169.3 277.7C168.8 273.9 166 272.1 162.7 272.6Z" fill="white"/>
<path d="M184.6 273.7C186.8 273 187.5 271.4 187 269.8C186.5 268.1 185.1 267.4 182.9 268.1L179.3 269.2C179.1 269.2 179 269.4 179.1 269.6L183.3 283.6L179.5 284.7L174.3 267.5L182.4 265C186.8 263.7 189.8 265.2 190.8 268.3C191.8 271.5 190.2 273.5 188.1 274.8C190.3 275.9 193.6 278.2 195.8 279.8L191.1 281.2C188 278.9 184.6 276.8 181.9 275.3C181.7 275.2 181.6 275.1 181.5 274.8L181.4 274.6L184.6 273.7Z" fill="white"/>
<path d="M204.5 259.6L199.8 261.7L205.9 275.3L202.3 276.9L196.2 263.3L191.5 265.4L190.2 262.6L203.2 256.7L204.5 259.6Z" fill="white"/>
<path d="M217.3 269.3L213.8 271.3L205 255.6L208.5 253.6L217.3 269.3Z" fill="white"/>
<path d="M226.4 251.5C226.6 252.2 226.8 253.3 226.9 253.9C227 254.6 226.8 254.9 226.3 255.2L221.7 258.4L225.6 264L222.4 266.3L212.2 251.6L222.7 244.3L224.4 246.8L217.5 251.6C217.3 251.7 217.3 251.9 217.4 252.1L220.1 256L226.4 251.5Z" fill="white"/>
<path d="M244.2 235.3C244.5 236 244.9 237 245.1 237.6C245.3 238.2 245.2 238.6 244.8 239L240.8 243L245.6 247.9L242.8 250.7L230.2 237.8L239.2 228.8L241.3 230.9L235.3 236.9C235.2 237 235.1 237.2 235.3 237.4L238.6 240.7L244.2 235.3Z" fill="white"/>
<path d="M252.4 226.5C253.8 224.7 253.4 223 252.1 221.9C250.7 220.8 249.2 221.1 247.8 222.9L245.5 225.9C245.4 226 245.4 226.2 245.6 226.4L257.2 235.3L254.8 238.4L240.6 227.4L245.8 220.7C248.6 217.1 252 216.6 254.5 218.5C257.1 220.5 257 223.1 256 225.3C258.4 225 262.4 224.8 265.2 224.9L262.2 228.8C258.4 228.8 254.4 229 251.3 229.4C251.1 229.4 251 229.4 250.7 229.2L250.5 229L252.4 226.5Z" fill="white"/>
<path d="M266.5 222.8C262.8 218.4 257.4 212 254.2 207.9L256.5 203.7C256.7 203.3 257 203.2 257.4 203.2C262.3 203.6 269.9 204.6 276 205.5L273.8 209.4C272.3 209.2 270.6 208.8 268.9 208.5L265.2 215.3C266.4 216.6 267.5 218 268.5 219.1L266.5 222.8ZM258.3 207.2C259.5 208.7 261.3 210.8 263.1 212.9L265.8 208.1C263.1 207.6 260.4 207.3 258.4 207.1L258.3 207.2Z" fill="white"/>
<path d="M283.4 185.8L282.7 187.8C282.5 188.3 282.3 188.6 281.7 188.7C277 189.9 271.6 191.9 267.4 193.8L278.9 198L277.6 201.5L260.7 195.4L261.6 192.9C261.8 192.4 262.1 192.1 262.5 191.9C265.7 190.3 270.8 188.2 275.1 186.8L265.2 183.2L266.5 179.7L283.4 185.8Z" fill="white"/>
<path d="M288.7 175.1C287.9 174.6 287.2 174.1 286.4 173.6C284.7 178.2 280.4 180.6 275.7 179.7C270.4 178.7 267.5 173.7 268.6 168.1C269.2 165 270.9 162.6 273.4 161.1L275 164.3C273.5 165.2 272.3 166.6 271.8 168.7C271.2 171.8 272.8 174.9 276.4 175.6C280.3 176.4 283 173.9 283.6 171C284 168.8 283.5 166.9 282.1 165.6L284.8 163C286.2 164.8 287.4 167 287 170.3C287.9 170.8 288.5 171.2 289.2 171.7L288.7 175.1Z" fill="white"/>
<path d="M288.6 160.6C283.3 158.4 275.6 155 271 152.7L271.2 148C271.2 147.5 271.5 147.3 271.8 147.2C276.3 145.3 283.6 142.8 289.5 141L289.3 145.5C287.9 145.9 286.2 146.4 284.5 146.9L284.2 154.6C285.9 155.3 287.5 155.9 288.9 156.5L288.6 160.6ZM274.3 150.4C276 151.2 278.6 152.3 281.2 153.4L281.4 147.9C278.7 148.7 276.2 149.6 274.3 150.3V150.4Z" fill="white"/>
<path d="M288.7 133.399L289 137.399L271.1 138.499L270.8 134.499L288.7 133.399Z" fill="white"/>
<path d="M284.1 129.1C284.9 127.5 285.2 124.8 284.9 123.1C284.5 120.8 283.6 119.5 282.3 119.7C281.2 119.9 280.8 120.8 280.3 122.8L279.6 125.8C279 128.2 278 130.3 275.3 130.7C272.5 131.1 270.1 129 269.3 124C269 122 269.2 119.7 269.6 118.4L272.7 117.9C272.1 119.7 271.9 121.7 272.2 123.5C272.6 126 273.6 126.8 274.7 126.7C275.8 126.5 276.2 125.7 276.6 124L277.3 120.9C278 117.9 279.2 116.1 281.5 115.7C284.8 115.2 287.2 117.8 287.9 122.4C288.2 124.4 288 127 287.4 128.5L284.1 129.1Z" fill="white"/>
<path d="M21 97.4002C24.6451 97.4002 27.6 94.4453 27.6 90.8002C27.6 87.1551 24.6451 84.2002 21 84.2002C17.3549 84.2002 14.4 87.1551 14.4 90.8002C14.4 94.4453 17.3549 97.4002 21 97.4002Z" fill="white"/>
<path d="M269.1 97.4002C272.745 97.4002 275.7 94.4453 275.7 90.8002C275.7 87.1551 272.745 84.2002 269.1 84.2002C265.455 84.2002 262.5 87.1551 262.5 90.8002C262.5 94.4453 265.455 97.4002 269.1 97.4002Z" fill="white"/>
<path d="M187.2 86.6C188.4 86.6 192.8 85.9 193.1 81.3C193.3 77.3 190.2 75.1 186.3 75.1C181.6 75.1 178.2 76.9 172.9 76.9C169.7 76.9 166 75.2 165.4 74.9C161.7 72.7 159.3 70.3 159.3 66.8C159.3 64.7 160.6 63.6 161.9 63.5C163.4 63.5 164.6 64.5 164.6 65.8C164.7 67 163.8 67.9 163.8 67.9C164.9 68.5 167.3 67.9 167.3 64.7C167.3 61.9 165 60 162.1 60C158.3 60 155.9 63 155.9 66.7C155.9 74.5 163.6 78 171.8 81.8C182.3 86.6 194.2 92.1 194.6 107.4C195 122.3 180.6 134.9 165.3 148.2C161.7 151.4 158 154.6 154.5 157.8C154 155.2 153.5 152.8 152.8 150.5C160.5 147 166.2 138.1 167.8 127.8C172.8 126.1 176.3 122.9 177.9 118.3C180.6 110.9 177.8 101.9 175.2 97.6C170.4 89.7 163.8 82.4 156.7 77C155.1 75.8 153.5 74.7 151.8 73.8C151.1 71.6 150.7 69.4 150.7 67.2C150.7 62.9 152.2 59.8 155.3 57.9C158.1 56.2 161.1 56.2 161.2 56.2C165.1 56.2 166.4 57.4 168.5 57.4C169.7 57.4 170.5 56.9 170.9 56.5C172.4 54.9 171.4 52.1 171.1 51.2C169.5 46.8 162.1 39 152.8 39C151.6 39 150.5 39.5 149.9 40.3C149.3 41 149.1 41.9 149.3 42.7C149.6 44.3 151.5 45.5 152.4 46.9C152.7 47.4 152.6 47.8 152 47.6C151.3 47.4 148.2 46.3 144 46.3C141 46.3 136.8 47.3 134.7 49.4C133.8 50.4 133.3 51.5 133.3 52.2C133.3 53.2 133.7 54.4 135.5 55C137.5 55.7 141.4 56.6 141.4 57.8C141.4 58.5 139.2 58.6 136.4 59.6C134.4 60.3 128 63.1 128 67.5C128 69 129.1 71.3 132.5 71.2C138.3 71.1 143.6 72.8 149 75.9C150.3 79.6 152.3 83.3 154.4 87.3C159.3 96.5 165.5 107.9 164.7 124.9C153.6 127 146.6 114.2 144 108.3C139.2 97.4 133.7 87.5 119.5 87.5C111.5 87.5 104.3 91.5 99.3 98.8C94.8 105.3 92.2 114.2 92.2 123.2C92.2 135.1 95.7 143.9 101.9 147.4C104.5 148.9 107.4 149.3 110.2 148.6C111.9 151.7 113.8 154.3 115.8 156.5C117.1 158 118 158.8 119.5 158.8C120.9 158.8 121.9 157.7 121.9 157.7C119 155.4 116 151.9 113.4 147.4C115.4 146.1 124.4 141.4 124.4 122.2C124.4 109.2 119.7 105.6 116.1 105.3C115.1 105.2 112.6 105.2 110.1 107.5C106.4 111 104.5 117.9 104.7 128.2C104.8 134.6 106.3 140.4 108.6 145.4C106.9 145.6 105.2 145.3 103.6 144.4C98.4999 141.5 95.5999 133.8 95.5999 123.1C95.5999 114.8 97.9999 106.6 102.1 100.6C105.2 96.1 110.7 90.8 119.5 90.8C131.7 90.8 136.4 99.3 140.9 109.5C143.8 116 147.5 121.2 151.6 124.4C155.5 127.5 159.8 128.8 164.3 128.2C162.7 136.6 158.1 143.7 152 146.8C151.8 146.2 147.8 131.3 139.2 127.2C136.1 125.7 133 126.1 130.5 128.2C128.7 129.6 127.7 131.8 127.7 134.5C127.6 138.7 129.9 143.3 133.8 146.8C138.7 151.1 144.3 152.7 149.8 151.3C150.5 154 151.2 157 151.7 160.2C144.6 167 138.3 174.3 134.1 182.4H138C141.7 176 146.7 170 152.4 164.4C153.2 169.7 153.7 175.7 154.1 182.4H157.5C157.2 174.7 156.5 167.7 155.4 161.4C159.4 157.6 163.6 154 167.7 150.3C183.5 136.4 198.5 123.4 198.1 106.9C197.7 97.4 193.1 91.1 187.2 86.6ZM186.2 78.5C187.4 78.5 189.6 78.9 189.6 80.9C189.6 83 187.6 83.5 186.5 83.5C183.6 83.5 177.5 81 175.8 79.9C179.7 79.8 182.7 78.5 186.2 78.5ZM147.7 71.9C145.1 70.7 143 69.8 140.4 69.2C136.7 68.3 134.4 68.3 132.4 68.3C131.1 68.3 131.5 67.5 131.6 67.3C133.4 64.3 139.6 62.5 141.1 62.2C143.7 61.6 145.2 60.6 145.2 58.7C145.2 54.5 139.2 53.4 137.5 52.7C136.7 52.4 137.3 51.9 137.5 51.7C138.9 50.7 141.6 50 143.9 50C146.8 50 148.7 50.6 150.2 51C155.6 52.5 156.2 49.1 156.2 48C156.2 45.9 154.1 44.1 153.3 43.3C152.9 42.9 153.2 42.6 153.6 42.7C162.9 43.7 167.6 51.4 168 53.2C168.1 53.7 168.3 54.3 167.3 54C165.4 53.4 163.3 53.1 161.1 53.1C160.7 53.1 156.9 53.2 153.4 55.3C150.6 57 147.2 60.5 147.2 67.5C147.3 69 147.4 70.4 147.7 71.9ZM157.4 86.2C156.2 83.9 155.1 81.8 154 79.7C161.4 85.1 167.9 92.5 172.2 99.7C174.3 103.2 176.9 111.2 174.6 117.5C173.5 120.6 171.3 122.9 168 124.3C168.8 107.6 162.2 95.2 157.4 86.2ZM108.1 128.7C107.9 117.2 110.4 112.5 112.4 110.6C113.7 109.4 114.9 109.3 115.5 109.3C118.8 109.3 120.8 114.4 121 122.5C121.3 134.8 116.6 142.4 111.8 145C109.7 140.3 108.2 134.8 108.1 128.7ZM135.9 144.8C132.7 142 131 138.4 131 135.1C131 133 132.3 130.3 135.4 130.3C140.4 130.3 145.5 138 148.7 148.6C144.3 149.6 139.9 148.3 135.9 144.8Z" fill="white"/>
<path d="M173.7 72.4C177.2 72.5 181.5 68.8 181.5 68.8C181.5 68.8 179.7 68.4 174.5 68.4C175.7 66.1 177.2 61.8 177.2 61.5C177.2 61.5 170.3 64.9 170.2 68.8C170.1 69.2 170.2 72.4 173.7 72.4Z" fill="white"/>
<path d="M143.4 230.3C143.4 241.1 134.6 249.9 123.8 249.9C113 249.9 104.2 241.1 104.2 230.3C104.2 219.5 113 210.7 123.8 210.7C134.6 210.7 143.4 219.5 143.4 230.3ZM123.8 214C114.8 214 107.5 221.3 107.5 230.3C107.5 239.3 114.8 246.6 123.8 246.6C132.8 246.6 140.1 239.3 140.1 230.3C140.2 221.3 132.8 214 123.8 214Z" fill="white"/>
<path d="M185.9 230.3C185.9 241.1 177.1 249.9 166.3 249.9C155.5 249.9 146.7 241.1 146.7 230.3C146.7 219.5 155.5 210.7 166.3 210.7C177.1 210.7 185.9 219.5 185.9 230.3ZM166.3 214C157.3 214 150 221.3 150 230.3C150 239.3 157.3 246.6 166.3 246.6C175.3 246.6 182.6 239.3 182.6 230.3C182.6 221.3 175.3 214 166.3 214Z" fill="white"/>
<path d="M102.6 192.8C91.8 192.8 83 201.6 83 212.4C83 223.2 91.8 232 102.6 232C103.2 232 103.7 232 104.3 231.9C104.3 231.4 104.2 230.9 104.2 230.3C104.2 229.7 104.2 229.1 104.3 228.6C103.7 228.7 103.2 228.7 102.6 228.7C93.6 228.7 86.3 221.4 86.3 212.4C86.3 203.4 93.6 196.1 102.6 196.1C111.6 196.1 118.9 203.4 118.9 212.4C118.9 219.6 114.2 225.8 107.7 227.9C107.6 228.7 107.5 229.5 107.5 230.3C107.5 230.6 107.5 231 107.5 231.3C115.9 229.1 122.2 221.5 122.2 212.3C122.2 201.5 113.4 192.8 102.6 192.8Z" fill="white"/>
<path d="M187.5 192.8C177.2 192.8 168.8 200.7 168 210.8C169.1 210.9 170.2 211.1 171.2 211.4C171.7 202.9 178.8 196.1 187.5 196.1C196.5 196.1 203.8 203.4 203.8 212.4C203.8 221.4 196.5 228.7 187.5 228.7C179.3 228.7 172.5 222.7 171.4 214.8C170.3 214.4 169.2 214.2 168 214.1C168.9 224.1 177.3 232 187.5 232C198.3 232 207.1 223.2 207.1 212.4C207.1 201.5 198.3 192.8 187.5 192.8Z" fill="white"/>
<path d="M146.7 230.3C146.7 229.7 146.7 229.1 146.8 228.6C146.2 228.7 145.7 228.7 145.1 228.7C136.9 228.7 130.1 222.7 129 214.8C127.9 214.4 126.8 214.2 125.6 214.1C126.5 224.1 134.9 232 145.1 232C145.7 232 146.2 232 146.8 231.9C146.7 231.3 146.7 230.8 146.7 230.3Z" fill="white"/>
<path d="M145.1 192.8C134.8 192.8 126.4 200.7 125.6 210.8C126.7 210.9 127.8 211.1 128.8 211.4C129.3 202.9 136.4 196.1 145.1 196.1C154.1 196.1 161.4 203.4 161.4 212.4C161.4 219.6 156.7 225.8 150.2 227.9C150.1 228.7 150 229.5 150 230.3C150 230.6 150 231 150 231.3C158.4 229.1 164.7 221.5 164.7 212.3C164.6 201.5 155.9 192.8 145.1 192.8Z" fill="white"/>
<path d="M290.3 375.8H0V325.3H290.3V375.8ZM2.70001 373.1H287.6V328H2.70001V373.1Z" fill="white"/>
<path d="M112.8 358.2C110.6 360.9 107.4 363.2 101.9 363.2C93.9 363.2 88.4 357.7 88.4 350.5C88.4 343.3 94.2 338.1 101.9 338.1C106.2 338.1 109.8 339.7 112.4 342.6L108.6 345.6C107.1 343.9 104.9 342.6 101.9 342.6C97.6 342.6 93.9 345.5 93.9 350.5C93.9 355.9 97.9 358.8 101.9 358.8C105 358.8 107.2 357.5 108.7 355.4L112.8 358.2Z" fill="white"/>
<path d="M128.7 338.4C137.2 338.4 142 342.5 142 350.1C142 358 137.2 362.7 128.7 362.7H119.9V338.4H128.7ZM125.2 342.5V357.9C125.2 358.4 125.5 358.5 125.8 358.5H128.4C133.8 358.5 136.6 355.3 136.6 350C136.6 344.8 133.8 342.4 128.4 342.4H125.2V342.5Z" fill="white"/>
<path d="M162.6 363.2C154.5 363.2 149.1 357.6 149.1 350.5C149.1 343.8 154.5 338 162.6 338C170.7 338 176.1 343.8 176.1 350.5C176.1 357.6 170.8 363.2 162.6 363.2ZM162.6 342.5C158.4 342.5 154.6 345.4 154.6 350.5C154.6 355.7 158.4 358.7 162.6 358.7C167.1 358.7 170.6 355.8 170.6 350.5C170.6 345.4 167.1 342.5 162.6 342.5Z" fill="white"/>
<path d="M183.5 356.7C185.5 358.1 189 359.1 191.4 359.1C194.5 359.1 196.4 358.2 196.4 356.3C196.4 354.7 195.2 354 192.7 353L188.8 351.4C185.7 350.1 183.2 348.3 183.2 344.6C183.2 340.8 186.6 338 193.5 338C196.2 338 199.2 338.8 200.9 339.6V343.9C198.7 342.7 196.1 342 193.5 342C190 342 188.7 343.2 188.7 344.7C188.7 346.1 189.7 346.9 191.9 347.8L195.8 349.4C199.6 351 201.8 352.9 201.8 356C201.8 360.5 197.8 363.2 191.5 363.2C188.7 363.2 185.3 362.4 183.4 361.3V356.7H183.5Z" fill="white"/>
<path d="M37.4 418.4C35.2 421.1 31.9999 423.4 26.5999 423.4C18.6999 423.4 13.2 417.9 13.2 410.7C13.2 403.5 18.9999 398.3 26.5999 398.3C30.8999 398.3 34.4999 399.9 37.0999 402.8L33.3 405.8C31.8 404.1 29.5999 402.8 26.5999 402.8C22.2999 402.8 18.7 405.7 18.7 410.7C18.7 416.1 22.6999 418.9 26.5999 418.9C29.6999 418.9 31.9 417.6 33.4 415.5L37.4 418.4Z" fill="white"/>
<path d="M73 410.7C73 417.8 67.6 423.3 59.6 423.3C51.5 423.3 46.1 417.8 46.1 410.7C46.1 404 51.5 398.3 59.6 398.3C67.7 398.3 73 404.1 73 410.7ZM67.5 410.8C67.5 405.7 64 402.8 59.6 402.8C55.4 402.8 51.6 405.6 51.6 410.8C51.6 416 55.4 418.9 59.6 418.9C64.1 418.9 67.5 416 67.5 410.8ZM56.3 394.1L53.5 397.9H57.9L59.6 396L61.3 397.9H65.6L62.8 394.1H56.3Z" fill="white"/>
<path d="M100.6 402.9H93.7V422.9H88.4V402.9H81.5V398.8H100.7V402.9H100.6Z" fill="white"/>
<path d="M127.2 408.499C126.8 409.399 126.3 410.799 125.9 411.599C125.5 412.399 125.1 412.599 124.3 412.599H116.6V418.399C116.6 418.799 116.8 418.999 117.2 418.999H128.4V422.999H111.3V398.899H128.2V402.999H116.6V408.699H127.2V408.499Z" fill="white"/>
<path d="M141.2 415.7V411.1H154V415.7H141.2Z" fill="white"/>
<path d="M176.6 398.8C185.1 398.8 189.9 402.9 189.9 410.4C189.9 418.3 185.1 422.9 176.6 422.9H167.8V398.8H176.6ZM173.1 402.8V418.2C173.1 418.7 173.4 418.8 173.7 418.8H176.3C181.7 418.8 184.4 415.6 184.4 410.4C184.4 405.2 181.6 402.8 176.3 402.8H173.1Z" fill="white"/>
<path d="M203.2 398.8H208.2L204.3 408.6H199.5L203.2 398.8Z" fill="white"/>
<path d="M229.7 423.399C221.6 423.399 216.2 417.899 216.2 410.799C216.2 404.099 221.6 398.399 229.7 398.399C237.8 398.399 243.1 404.099 243.1 410.799C243.2 417.799 237.8 423.399 229.7 423.399ZM229.7 402.799C225.5 402.799 221.7 405.599 221.7 410.799C221.7 415.999 225.5 418.899 229.7 418.899C234.2 418.899 237.6 415.999 237.6 410.799C237.7 405.699 234.2 402.799 229.7 402.799Z" fill="white"/>
<path d="M265.1 410.7C268.1 410.7 269.7 408.9 269.7 406.6C269.7 404.3 268.2 402.8 265.1 402.8H260.1C259.9 402.8 259.6 403 259.6 403.3V422.9H254.3V398.8H265.7C271.8 398.8 275.2 402 275.2 406.2C275.2 410.6 272.4 412.7 269.2 413.4C271.6 415.7 275 419.9 277.2 422.8H270.6C267.5 418.7 264 414.7 261 411.7C260.8 411.5 260.7 411.4 260.7 410.9V410.6H265.1V410.7Z" fill="white"/>
</svg>
