<?xml version="1.0" encoding="utf-8"?>
<!-- Generator: Adobe Illustrator 21.0.0, SVG Export Plug-In . SVG Version: 6.00 Build 0)  -->
<svg version="1.1" id="Calque_1" xmlns="http://www.w3.org/2000/svg" xmlns:xlink="http://www.w3.org/1999/xlink" x="0px" y="0px"
	 viewBox="0 0 841.9 595.3" style="enable-background:new 0 0 841.9 595.3;" xml:space="preserve">
<style type="text/css">
	.st0{fill:#0C1B47;}
	.st1{fill:#E62644;}
	.st2{fill:#FAB31E;}
	.st3{fill:#009640;}
	.st4{fill:#0079C2;}
	.st5{fill:#FFFFFF;}
</style>
<g>
	<g>
		<g>
			<g>
				<g>
					<g>
						<path class="st0" d="M324.5,139c0.6,2.5,0.4,5.4-2.1,8.6c-3.6,4.6-9.4,5.3-13.6,2c-4.2-3.3-4.6-9.1-1.1-13.5
							c2-2.5,4.5-3.9,7.5-4l0,3.6c-1.7,0.1-3.4,0.8-4.8,2.5c-2,2.5-1.9,6,1,8.3c3.2,2.5,6.7,1.4,8.5-0.9c1.4-1.8,1.7-3.7,1.1-5.5
							L324.5,139z"/>
						<path class="st0" d="M335.1,134c-4.4,4.1-10.2,3.8-13.7-0.1c-3.4-3.6-3.3-9.5,1.1-13.6c4.4-4.1,10.2-3.7,13.6,0
							C339.6,124.1,339.5,129.9,335.1,134z M324.7,122.7c-2.3,2.1-2.9,5.6-0.3,8.4c2.6,2.8,6.2,2.5,8.5,0.4c2.4-2.3,2.8-5.6,0.2-8.4
							C330.5,120.3,327.1,120.5,324.7,122.7z"/>
						<path class="st0" d="M349.8,106.9c0,3.2,0.1,6.9,0.3,10l-0.3,0.2c-3.1-1.6-6.3-3.1-9.2-4.1l6.8,10.4l-3.1,2l-9.8-15.1l2.9-1.9
							c0.5-0.3,0.7-0.3,1.1-0.2c2.3,0.7,5.4,2,8.3,3.4c-0.1-2.9-0.2-6.6,0-9.2l3.5-2.3l9.8,15.1l-3.3,2.2L349.8,106.9z"/>
						<path class="st0" d="M367.4,111.7l-3.6,1.7l-7.9-16.1l3.6-1.7L367.4,111.7z"/>
						<path class="st0" d="M378,91.5l-4.8,1.8l5.2,14l-3.7,1.4l-5.2-14l-4.8,1.8l-1.1-2.9l13.4-5L378,91.5z"/>
						<path class="st0" d="M390.7,81.9l0,0.1l-1.6,3.4l4.3-1l0.7,2.9l-8.4,2l1,4.1l7.7-1.9c-0.1,0.8-0.3,1.8-0.4,2.5
							c-0.1,0.7-0.4,0.9-1,1l-5.6,1.3l1,4.2c0.1,0.3,0.3,0.4,0.5,0.3l8.1-2l0.7,2.9l-12.4,3l-4.2-17.5l4.4-1.1l1.4-3.5L390.7,81.9z"
							/>
						<path class="st0" d="M425.2,99.7l-2.2,0.1c-0.6,0-0.9-0.1-1.2-0.6c-2.9-3.9-6.7-8.2-10-11.4l0.4,12.3l-3.8,0.1l-0.6-18
							l2.7-0.1c0.6,0,0.9,0.1,1.3,0.5c2.7,2.3,6.6,6.3,9.4,9.8l-0.3-10.6l3.8-0.1L425.2,99.7z"/>
						<path class="st0" d="M427.1,99.7c2.7-5.1,6.6-12.5,9.3-16.9l4.7,0.6c0.5,0.1,0.6,0.3,0.8,0.7c1.5,4.7,3.4,12.1,4.8,18.1
							l-4.4-0.6c-0.3-1.5-0.7-3.2-1-4.9l-7.6-1c-0.8,1.6-1.6,3.2-2.2,4.5L427.1,99.7z M438.5,86.3c-1,1.7-2.3,4.1-3.5,6.6l5.5,0.7
							c-0.6-2.7-1.2-5.4-1.8-7.3L438.5,86.3z"/>
						<path class="st0" d="M463.3,91.3l-5-1.3l-3.7,14.4l-3.8-1l3.7-14.4l-5-1.3l0.8-3l13.8,3.6L463.3,91.3z"/>
						<path class="st0" d="M465.5,108l-3.7-1.3l6.1-16.9l3.7,1.3L465.5,108z"/>
						<path class="st0" d="M476.8,113.4c-5.4-2.7-7.1-8.2-4.8-12.9c2.2-4.5,7.7-6.5,13.1-3.8c5.4,2.7,7.1,8.3,4.8,12.7
							C487.6,114.1,482.1,116,476.8,113.4z M483.6,99.6c-2.8-1.4-6.3-0.7-7.9,2.7c-1.7,3.5-0.2,6.7,2.6,8.1c3,1.5,6.3,0.7,8-2.8
							C487.9,104.2,486.5,101.1,483.6,99.6z"/>
						<path class="st0" d="M501.5,128.7l-1.8-1.3c-0.5-0.3-0.6-0.6-0.6-1.2c0.1-4.8-0.3-10.6-1-15.1L491,121l-3-2.2l10.5-14.6
							l2.2,1.6c0.5,0.3,0.6,0.7,0.7,1.1c0.7,3.5,1.3,9,1.5,13.5l6.2-8.6l3,2.2L501.5,128.7z"/>
						<path class="st0" d="M503.1,129.9c5.2-2.4,12.9-5.8,17.7-7.7l3.4,3.3c0.3,0.3,0.3,0.6,0.2,1c-1.7,4.6-4.7,11.7-7.3,17.3
							l-3.2-3.1c0.6-1.4,1.4-2.9,2.2-4.5l-5.4-5.4c-1.6,0.8-3.2,1.5-4.5,2.2L503.1,129.9z M520.3,126.3c-1.8,0.7-4.3,1.9-6.8,3.1
							l3.9,3.9C518.6,130.7,519.7,128.2,520.3,126.3L520.3,126.3z"/>
						<path class="st0" d="M525.2,154.8l-7.2-9.4l14.3-10.9l2.4,3.1l-11.5,8.8c-0.2,0.2-0.3,0.4-0.1,0.6l4.6,5.9L525.2,154.8z"/>
					</g>
					<g>
						<g>
							<path class="st0" d="M277.9,205.6c0.9-6,5.5-9.3,10.7-8.6c4.9,0.7,8.6,5.3,7.7,11.2c-0.9,6-5.6,9.3-10.6,8.6
								C280.5,216.1,277,211.5,277.9,205.6z M293,207.8c0.4-3.1-1.3-6.2-5-6.7c-3.8-0.5-6.4,1.9-6.8,5c-0.5,3.3,1.3,6.2,5.1,6.7
								C290,213.3,292.5,211,293,207.8z"/>
							<path class="st0" d="M276.6,232.4l0.2-11.9l18,0.3l-0.1,4l-14.5-0.2c-0.3,0-0.5,0.2-0.5,0.4l-0.1,7.5L276.6,232.4z"/>
							<path class="st0" d="M277.9,244.4l-0.4-3.9l5.6-0.6c3.5-2.8,7.7-5.9,11.4-8.2l0.5,4.3c-3,1.6-6,3.7-8.1,5.5
								c2.6,1.3,5.8,2.7,9.1,3.6l0.5,4.2c-4.3-1.5-9-3.5-13-5.5L277.9,244.4z"/>
							<path class="st0" d="M295.5,266.9c-3-1-6.6-2-9.6-2.7l-0.1-0.4c2.4-2.5,4.8-5.1,6.7-7.5l-12,3.3l-1-3.6l17.3-4.8l0.9,3.3
								c0.2,0.5,0.1,0.8-0.1,1.1c-1.4,1.9-3.5,4.5-5.7,6.9c2.9,0.8,6.3,1.8,8.8,2.8l1.1,4l-17.3,4.8l-1.1-3.8L295.5,266.9z"/>
							<path class="st0" d="M293.5,281.4l-4.9,2.3l-1.6-3.6l16.3-7.5l3.1,6.8c1.9,4.1,1.1,7.7-2.4,9.3c-3.5,1.6-7.1,0-9-4
								L293.5,281.4z M302.2,277.4l-5.9,2.7l1.3,2.9c1,2.1,2.7,2.8,4.7,1.9c1.8-0.8,2.2-2.6,1.3-4.6L302.2,277.4z"/>
							<path class="st0" d="M297.3,300.6l-2-3.4l15.5-9.1l2,3.4L297.3,300.6z"/>
							<path class="st0" d="M311.6,316.9l-0.7,3.4l-3.6-1.2l0.8-3.6c-1.1-0.7-2.1-1.6-2.9-2.8c-3.6-4.8-2.7-10.5,1.5-13.7
								c4-3,9.8-2.3,13.4,2.5c3.6,4.8,2.6,10.6-1.4,13.5C316.5,316.7,314,317.3,311.6,316.9z M317.3,303.6c-1.9-2.5-5.2-3.5-8.3-1.2
								c-3.1,2.3-3.1,5.9-1.3,8.4c2,2.7,5.3,3.4,8.4,1.1C319.2,309.6,319.3,306.2,317.3,303.6z"/>
							<path class="st0" d="M331.7,330.4c-3.5,3.6-7.9,2.9-11.1-0.3c-3.2-3-4.1-7.5-0.6-11.1l7.4-7.7l2.8,2.7l-7.4,7.7
								c-2,2.1-1.6,4.5,0,6.1c1.7,1.6,4,1.9,6.1-0.2l7.4-7.7l2.8,2.7L331.7,330.4z"/>
							<path class="st0" d="M347.4,337.8c-0.6,0.4-1.6,1-2.1,1.3c-0.6,0.3-0.9,0.2-1.4-0.1l-4.7-3.4l-2.5,3.5
								c-0.2,0.2-0.1,0.5,0.1,0.6l6.8,4.9l-1.7,2.4l-10.3-7.5L342,325l10.2,7.4l-1.8,2.4l-7-5.1l-2.5,3.4L347.4,337.8z"/>
							<path class="st0" d="M369,349.3c-0.6,0.5-1.4,1.2-1.9,1.6c-0.5,0.4-0.9,0.4-1.4,0.2l-5.2-2.5l-1.8,3.9
								c-0.1,0.3,0,0.5,0.2,0.6l7.5,3.6l-1.3,2.7l-11.5-5.5l7.7-16.2l11.3,5.4l-1.3,2.7l-7.8-3.7l-1.8,3.8L369,349.3z"/>
							<path class="st0" d="M386.5,351.1l-4.9-1.6l-4.7,14.1l-3.7-1.3l4.7-14.1l-4.9-1.6l1-2.9l13.5,4.5L386.5,351.1z"/>
							<path class="st0" d="M394.1,363.6c1.3,1.2,3.8,2.3,5.5,2.6c2.3,0.3,3.8-0.1,4-1.5c0.2-1.1-0.6-1.8-2.3-2.8l-2.7-1.6
								c-2.1-1.2-3.8-2.8-3.4-5.6c0.4-2.8,3.2-4.5,8.2-3.8c2,0.3,4.1,1.2,5.3,2l-0.4,3.1c-1.5-1.1-3.3-1.9-5.2-2.2
								c-2.5-0.4-3.6,0.4-3.8,1.5c-0.2,1.1,0.5,1.7,2.1,2.6l2.7,1.6c2.7,1.6,4,3.2,3.7,5.5c-0.5,3.3-3.7,4.8-8.3,4.2
								c-2-0.3-4.5-1.2-5.7-2.3L394.1,363.6z"/>
							<path class="st0" d="M415.9,364.9l-0.1,5.4l-4-0.1l0.3-18l7.5,0.1c4.5,0.1,7.4,2.3,7.4,6.2c-0.1,3.9-3,6.4-7.5,6.4
								L415.9,364.9z M416.1,355.4l-0.1,6.5l3.2,0.1c2.3,0,3.7-1.2,3.8-3.4c0-1.9-1.4-3.1-3.6-3.1L416.1,355.4z"/>
							<path class="st0" d="M440.6,369.4c-6,0.8-10.5-2.7-11.2-8c-0.7-4.9,2.7-9.7,8.7-10.5c6-0.8,10.5,2.9,11.2,7.8
								C449.9,364,446.5,368.6,440.6,369.4z M438.5,354.3c-3.1,0.4-5.6,2.9-5.1,6.7c0.5,3.8,3.6,5.6,6.7,5.2c3.3-0.4,5.6-3,5-6.8
								C444.6,355.6,441.8,353.8,438.5,354.3z"/>
							<path class="st0" d="M460.4,355.4c2.2-0.7,2.9-2.3,2.4-3.9c-0.5-1.7-1.9-2.4-4.1-1.7l-3.6,1.1c-0.2,0-0.3,0.2-0.2,0.4l4.2,14
								l-3.8,1.1l-5.2-17.2l8.1-2.5c4.4-1.3,7.4,0.2,8.4,3.3c1,3.2-0.6,5.2-2.7,6.5c2.2,1.1,5.5,3.4,7.7,5l-4.7,1.4
								c-3.1-2.3-6.5-4.4-9.2-5.9c-0.2-0.1-0.3-0.2-0.4-0.5l-0.1-0.2L460.4,355.4z"/>
							<path class="st0" d="M480.3,341.3l-4.7,2.1l6.1,13.6l-3.6,1.6L472,345l-4.7,2.1l-1.3-2.8l13-5.9L480.3,341.3z"/>
							<path class="st0" d="M493.1,351l-3.5,2l-8.8-15.7l3.5-2L493.1,351z"/>
							<path class="st0" d="M502.2,333.2c0.2,0.7,0.4,1.8,0.5,2.4c0.1,0.7-0.1,1-0.6,1.3l-4.6,3.2l3.9,5.6l-3.2,2.3L488,333.3
								l10.5-7.3l1.7,2.5l-6.9,4.8c-0.2,0.1-0.2,0.3-0.1,0.5l2.7,3.9L502.2,333.2z"/>
							<path class="st0" d="M520,317c0.3,0.7,0.7,1.7,0.9,2.3c0.2,0.6,0.1,1-0.3,1.4l-4,4l4.8,4.9l-2.8,2.8L506,319.5l9-9l2.1,2.1
								l-6,6c-0.1,0.1-0.2,0.3,0,0.5l3.3,3.3L520,317z"/>
							<path class="st0" d="M528.2,308.2c1.4-1.8,1-3.5-0.3-4.6c-1.4-1.1-2.9-0.8-4.3,1l-2.3,3c-0.1,0.1-0.1,0.3,0.1,0.5l11.6,8.9
								l-2.4,3.1l-14.2-11l5.2-6.7c2.8-3.6,6.2-4.1,8.7-2.2c2.6,2,2.5,4.6,1.5,6.8c2.4-0.3,6.4-0.5,9.2-0.4l-3,3.9
								c-3.8,0-7.8,0.2-10.9,0.6c-0.2,0-0.3,0-0.6-0.2l-0.2-0.2L528.2,308.2z"/>
							<path class="st0" d="M542.3,304.5c-3.7-4.4-9.1-10.8-12.3-14.9l2.3-4.2c0.2-0.4,0.5-0.5,0.9-0.5c4.9,0.4,12.5,1.4,18.6,2.3
								l-2.2,3.9c-1.5-0.2-3.2-0.6-4.9-0.9L541,297c1.2,1.3,2.3,2.7,3.3,3.8L542.3,304.5z M534.1,288.9c1.2,1.5,3,3.6,4.8,5.7
								l2.7-4.8c-2.7-0.5-5.4-0.8-7.4-1L534.1,288.9z"/>
							<path class="st0" d="M559.2,267.5l-0.7,2c-0.2,0.5-0.4,0.8-1,0.9c-4.7,1.2-10.1,3.2-14.3,5.1l11.5,4.2l-1.3,3.5l-16.9-6.1
								l0.9-2.5c0.2-0.5,0.5-0.8,0.9-1c3.2-1.6,8.3-3.7,12.6-5.1l-9.9-3.6l1.3-3.5L559.2,267.5z"/>
							<path class="st0" d="M564.5,256.8c-0.8-0.5-1.5-1-2.3-1.5c-1.7,4.6-6,7-10.7,6.1c-5.3-1-8.2-6-7.1-11.6
								c0.6-3.1,2.3-5.5,4.8-7l1.6,3.2c-1.5,0.9-2.7,2.3-3.2,4.4c-0.6,3.1,1,6.2,4.6,6.9c3.9,0.8,6.6-1.7,7.2-4.6
								c0.4-2.2-0.1-4.1-1.5-5.4l2.7-2.6c1.4,1.8,2.6,4,2.2,7.3c0.9,0.5,1.5,0.9,2.2,1.4L564.5,256.8z"/>
							<path class="st0" d="M564.4,242.3c-5.3-2.2-13-5.6-17.6-7.9l0.2-4.7c0-0.5,0.3-0.7,0.6-0.8c4.5-1.9,11.8-4.3,17.7-6.2
								l-0.2,4.5c-1.4,0.4-3.1,0.9-4.8,1.4l-0.3,7.7c1.7,0.7,3.3,1.3,4.7,1.9L564.4,242.3z M550.1,232.1c1.7,0.8,4.3,1.9,6.9,3
								l0.2-5.5c-2.7,0.8-5.2,1.7-7.1,2.4L550.1,232.1z"/>
							<path class="st0" d="M564.5,215.1l0.3,4l-17.9,1.1l-0.3-4L564.5,215.1z"/>
							<path class="st0" d="M559.9,210.8c0.8-1.6,1.1-4.3,0.8-6c-0.4-2.3-1.3-3.6-2.6-3.4c-1.1,0.2-1.5,1.1-2,3.1l-0.7,3
								c-0.6,2.4-1.6,4.5-4.3,4.9c-2.8,0.4-5.2-1.7-6-6.7c-0.3-2-0.1-4.2,0.3-5.6l3.1-0.5c-0.6,1.8-0.8,3.8-0.5,5.6
								c0.4,2.5,1.4,3.3,2.5,3.2c1.1-0.2,1.5-1,1.9-2.7l0.7-3.1c0.7-3,1.9-4.8,4.2-5.2c3.3-0.5,5.7,2.1,6.4,6.7
								c0.3,2,0.1,4.6-0.5,6.1L559.9,210.8z"/>
						</g>
					</g>
					<g>
						<g>
							<ellipse class="st1" cx="296.8" cy="172.5" rx="6.6" ry="6.6"/>
						</g>
						<g>
							<ellipse class="st1" cx="544.9" cy="172.5" rx="6.6" ry="6.6"/>
						</g>
					</g>
					<g>
						<g>
							<path class="st0" d="M463,168.3c1.2,0,5.6-0.7,5.9-5.3c0.2-4-2.9-6.2-6.8-6.2c-4.7,0-8.1,1.8-13.4,1.8c-3.2,0-6.9-1.7-7.5-2
								c-3.7-2.2-6.1-4.6-6.1-8.1c0-2.1,1.3-3.2,2.6-3.3c1.5,0,2.7,1,2.7,2.3c0.1,1.2-0.8,2.1-0.8,2.1c1.1,0.6,3.5,0,3.5-3.2
								c0-2.8-2.3-4.7-5.2-4.7c-3.8,0-6.2,3-6.2,6.7c0,7.8,7.7,11.3,15.9,15.1c10.5,4.8,22.4,10.3,22.8,25.6
								c0.4,14.9-14,27.5-29.3,40.8c-3.6,3.2-7.3,6.4-10.8,9.6c-0.5-2.6-1-5-1.7-7.3c7.7-3.5,13.4-12.4,15-22.7
								c5-1.7,8.5-4.9,10.1-9.5c2.7-7.4-0.1-16.4-2.7-20.7c-4.8-7.9-11.4-15.2-18.5-20.6c-1.6-1.2-3.2-2.3-4.9-3.2
								c-0.7-2.2-1.1-4.4-1.1-6.6c0-4.3,1.5-7.4,4.6-9.3c2.8-1.7,5.8-1.7,5.9-1.7c3.9,0,5.2,1.2,7.3,1.2c1.2,0,2-0.5,2.4-0.9
								c1.5-1.6,0.5-4.4,0.2-5.3c-1.6-4.4-9-12.2-18.3-12.2c-1.2,0-2.3,0.5-2.9,1.3c-0.6,0.7-0.8,1.6-0.6,2.4
								c0.3,1.6,2.2,2.8,3.1,4.2c0.3,0.5,0.2,0.9-0.4,0.7c-0.7-0.2-3.8-1.3-8-1.3c-3,0-7.2,1-9.3,3.1c-0.9,1-1.4,2.1-1.4,2.8
								c0,1,0.4,2.2,2.2,2.8c2,0.7,5.9,1.6,5.9,2.8c0,0.7-2.2,0.8-5,1.8c-2,0.7-8.4,3.5-8.4,7.9c0,1.5,1.1,3.8,4.5,3.7
								c5.8-0.1,11.1,1.6,16.5,4.7c1.3,3.7,3.3,7.4,5.4,11.4c4.9,9.2,11.1,20.6,10.3,37.6c-11.1,2.1-18.1-10.7-20.7-16.6
								c-4.8-10.9-10.3-20.8-24.5-20.8c-8,0-15.2,4-20.2,11.3c-4.5,6.5-7.1,15.4-7.1,24.4c0,11.9,3.5,20.7,9.7,24.2
								c2.6,1.5,5.5,1.9,8.3,1.2c1.7,3.1,3.6,5.7,5.6,7.9c1.3,1.5,2.2,2.3,3.7,2.3c1.4,0,2.4-1.1,2.4-1.1c-2.9-2.3-5.9-5.8-8.5-10.3
								c2-1.3,11-6,11-25.2c0-13-4.7-16.6-8.3-16.9c-1-0.1-3.5-0.1-6,2.2c-3.7,3.5-5.6,10.4-5.4,20.7c0.1,6.4,1.6,12.2,3.9,17.2
								c-1.7,0.2-3.4-0.1-5-1c-5.1-2.9-8-10.6-8-21.3c0-8.3,2.4-16.5,6.5-22.5c3.1-4.5,8.6-9.8,17.4-9.8c12.2,0,16.9,8.5,21.4,18.7
								c2.9,6.5,6.6,11.7,10.7,14.9c3.9,3.1,8.2,4.4,12.7,3.8c-1.6,8.4-6.2,15.5-12.3,18.6c-0.2-0.6-4.2-15.5-12.8-19.6
								c-3.1-1.5-6.2-1.1-8.7,1c-1.8,1.4-2.8,3.6-2.8,6.3c-0.1,4.2,2.2,8.8,6.1,12.3c4.9,4.3,10.5,5.9,16,4.5
								c0.7,2.7,1.4,5.7,1.9,8.9c-7.1,6.8-13.4,14.1-17.6,22.2h3.9c3.7-6.4,8.7-12.4,14.4-18c0.8,5.3,1.3,11.3,1.7,18h3.4
								c-0.3-7.7-1-14.7-2.1-21c4-3.8,8.2-7.4,12.3-11.1c15.8-13.9,30.8-26.9,30.4-43.4C473.5,179.1,468.9,172.8,463,168.3
								 M462,160.2c1.2,0,3.4,0.4,3.4,2.4c0,2.1-2,2.6-3.1,2.6c-2.9,0-9-2.5-10.7-3.6C455.5,161.5,458.5,160.2,462,160.2
								 M423.5,153.6c-2.6-1.2-4.7-2.1-7.3-2.7c-3.7-0.9-6-0.9-8-0.9c-1.3,0-0.9-0.8-0.8-1c1.8-3,8-4.8,9.5-5.1
								c2.6-0.6,4.1-1.6,4.1-3.5c0-4.2-6-5.3-7.7-6c-0.8-0.3-0.2-0.8,0-1c1.4-1,4.1-1.7,6.4-1.7c2.9,0,4.8,0.6,6.3,1
								c5.4,1.5,6-1.9,6-3c0-2.1-2.1-3.9-2.9-4.7c-0.4-0.4-0.1-0.7,0.3-0.6c9.3,1,14,8.7,14.4,10.5c0.1,0.5,0.3,1.1-0.7,0.8
								c-1.9-0.6-4-0.9-6.2-0.9c-0.4,0-4.2,0.1-7.7,2.2c-2.8,1.7-6.2,5.2-6.2,12.2C423.1,150.7,423.2,152.1,423.5,153.6
								 M433.2,167.9c-1.2-2.3-2.3-4.4-3.4-6.5c7.4,5.4,13.9,12.8,18.2,20c2.1,3.5,4.7,11.5,2.4,17.8c-1.1,3.1-3.3,5.4-6.6,6.8
								C444.6,189.3,438,176.9,433.2,167.9 M383.9,210.4c-0.2-11.5,2.3-16.2,4.3-18.1c1.3-1.2,2.5-1.3,3.1-1.3
								c3.3,0,5.3,5.1,5.5,13.2c0.3,12.3-4.4,19.9-9.2,22.5C385.5,222,384,216.5,383.9,210.4 M411.7,226.5c-3.2-2.8-4.9-6.4-4.9-9.7
								c0-2.1,1.3-4.8,4.4-4.8c5,0,10.1,7.7,13.3,18.3C420.1,231.3,415.7,230,411.7,226.5"/>
							<path class="st0" d="M449.5,154.1c3.5,0.1,7.8-3.6,7.8-3.6s-1.8-0.4-7-0.4c1.2-2.3,2.7-6.6,2.7-6.9c0,0-6.9,3.4-7,7.3
								C445.9,150.9,446,154.1,449.5,154.1"/>
						</g>
						<g>
							<g>
								<g>
									<path class="st2" d="M419.2,312c0,10.8-8.8,19.6-19.6,19.6c-10.8,0-19.6-8.8-19.6-19.6c0-10.8,8.8-19.6,19.6-19.6
										C410.4,292.4,419.2,301.2,419.2,312 M399.6,295.7c-9,0-16.3,7.3-16.3,16.3c0,9,7.3,16.3,16.3,16.3c9,0,16.3-7.3,16.3-16.3
										C416,303,408.6,295.7,399.6,295.7"/>
									<path class="st3" d="M461.7,312c0,10.8-8.8,19.6-19.6,19.6c-10.8,0-19.6-8.8-19.6-19.6c0-10.8,8.8-19.6,19.6-19.6
										C452.9,292.4,461.7,301.2,461.7,312 M442.1,295.7c-9,0-16.3,7.3-16.3,16.3c0,9,7.3,16.3,16.3,16.3c9,0,16.3-7.3,16.3-16.3
										C458.4,303,451.1,295.7,442.1,295.7"/>
									<path class="st4" d="M378.4,274.5c-10.8,0-19.6,8.8-19.6,19.6c0,10.8,8.8,19.6,19.6,19.6c0.6,0,1.1,0,1.7-0.1
										c0-0.5-0.1-1-0.1-1.6c0-0.6,0-1.2,0.1-1.7c-0.6,0.1-1.1,0.1-1.7,0.1c-9,0-16.3-7.3-16.3-16.3c0-9,7.3-16.3,16.3-16.3
										c9,0,16.3,7.3,16.3,16.3c0,7.2-4.7,13.4-11.2,15.5c-0.1,0.8-0.2,1.6-0.2,2.4c0,0.3,0,0.7,0,1c8.4-2.2,14.7-9.8,14.7-19
										C398,283.2,389.2,274.5,378.4,274.5z"/>
									<path class="st1" d="M463.3,274.5c-10.3,0-18.7,7.9-19.5,18c1.1,0.1,2.2,0.3,3.2,0.6c0.5-8.5,7.6-15.3,16.3-15.3
										c9,0,16.3,7.3,16.3,16.3c0,9-7.3,16.3-16.3,16.3c-8.2,0-15-6-16.1-13.9c-1.1-0.4-2.2-0.6-3.4-0.7
										c0.9,10,9.3,17.9,19.5,17.9c10.8,0,19.6-8.8,19.6-19.6C482.9,283.2,474.1,274.5,463.3,274.5z"/>
									<g>
										<path d="M422.5,312c0-0.6,0-1.2,0.1-1.7c-0.6,0.1-1.1,0.1-1.7,0.1c-8.2,0-15-6-16.1-13.9c-1.1-0.4-2.2-0.6-3.4-0.7
											c0.9,10,9.3,17.9,19.5,17.9c0.6,0,1.1,0,1.7-0.1C422.5,313,422.5,312.5,422.5,312z"/>
										<path d="M420.9,274.5c-10.3,0-18.7,7.9-19.5,18c1.1,0.1,2.2,0.3,3.2,0.6c0.5-8.5,7.6-15.3,16.3-15.3
											c9,0,16.3,7.3,16.3,16.3c0,7.2-4.7,13.4-11.2,15.5c-0.1,0.8-0.2,1.6-0.2,2.4c0,0.3,0,0.7,0,1c8.4-2.2,14.7-9.8,14.7-19
											C440.4,283.2,431.7,274.5,420.9,274.5z"/>
									</g>
								</g>
							</g>
						</g>
					</g>
				</g>
			</g>
		</g>
	</g>
	<g>
		<rect x="277.2" y="408.3" class="st0" width="287.6" height="47.8"/>
		<g>
			<path class="st5" d="M388.6,439.9c-2.2,2.7-5.4,5-10.9,5c-8,0-13.5-5.5-13.5-12.7c0-7.2,5.8-12.4,13.5-12.4
				c4.3,0,7.9,1.6,10.5,4.5l-3.8,3c-1.5-1.7-3.7-3-6.7-3c-4.3,0-8,2.9-8,7.9c0,5.4,4,8.3,8,8.3c3.1,0,5.3-1.3,6.8-3.4L388.6,439.9z"
				/>
			<path class="st5" d="M404.5,420.1c8.5,0,13.3,4.1,13.3,11.7c0,7.9-4.8,12.6-13.3,12.6h-8.8v-24.3H404.5z M401,424.2v15.4
				c0,0.5,0.3,0.6,0.6,0.6h2.6c5.4,0,8.2-3.2,8.2-8.5c0-5.2-2.8-7.6-8.2-7.6H401z"/>
			<path class="st5" d="M438.4,444.9c-8.1,0-13.5-5.6-13.5-12.7c0-6.7,5.4-12.5,13.5-12.5c8.1,0,13.5,5.8,13.5,12.5
				C451.9,439.3,446.6,444.9,438.4,444.9z M438.4,424.2c-4.2,0-8,2.9-8,8c0,5.2,3.8,8.2,8,8.2c4.5,0,8-2.9,8-8.2
				C446.4,427.1,442.9,424.2,438.4,424.2z"/>
			<path class="st5" d="M459.3,438.4c2,1.4,5.5,2.4,7.9,2.4c3.1,0,5-0.9,5-2.8c0-1.6-1.2-2.3-3.7-3.3l-3.9-1.6
				c-3.1-1.3-5.6-3.1-5.6-6.8c0-3.8,3.4-6.6,10.3-6.6c2.7,0,5.7,0.8,7.4,1.6v4.3c-2.2-1.2-4.8-1.9-7.4-1.9c-3.5,0-4.8,1.2-4.8,2.7
				c0,1.4,1,2.2,3.2,3.1l3.9,1.6c3.8,1.6,6,3.5,6,6.6c0,4.5-4,7.2-10.3,7.2c-2.8,0-6.2-0.8-8.1-1.9V438.4z"/>
		</g>
		<g>
			<path class="st0" d="M313.2,500.1c-2.2,2.7-5.4,5-10.8,5c-7.9,0-13.4-5.5-13.4-12.7c0-7.2,5.8-12.4,13.4-12.4
				c4.3,0,7.9,1.6,10.5,4.5l-3.8,3c-1.5-1.7-3.7-3-6.7-3c-4.3,0-7.9,2.9-7.9,7.9c0,5.4,4,8.2,7.9,8.2c3.1,0,5.3-1.3,6.8-3.4
				L313.2,500.1z"/>
			<path class="st0" d="M348.8,492.4c0,7.1-5.4,12.6-13.4,12.6s-13.5-5.5-13.5-12.6c0-6.7,5.4-12.4,13.5-12.4
				S348.8,485.8,348.8,492.4z M343.3,492.5c0-5.1-3.5-8-7.9-8c-4.2,0-8,2.8-8,8c0,5.2,3.8,8.1,8,8.1
				C339.9,500.6,343.3,497.7,343.3,492.5z M332.1,475.8l-2.8,3.8h4.4l1.7-1.9l1.7,1.9h4.3l-2.8-3.8H332.1z"/>
			<path class="st0" d="M376.4,484.6h-6.9v20h-5.3v-20h-6.9v-4.1h19.2V484.6z"/>
			<path class="st0" d="M403,490.2c-0.4,0.9-0.9,2.3-1.3,3.1c-0.4,0.8-0.8,1-1.6,1h-7.7v5.8c0,0.4,0.2,0.6,0.6,0.6h11.2v4h-17.1
				v-24.1H404v4.1h-11.6v5.7H403z"/>
			<path class="st0" d="M417,497.4v-4.6h12.8v4.6H417z"/>
			<path class="st0" d="M452.4,480.5c8.5,0,13.3,4.1,13.3,11.6c0,7.9-4.8,12.5-13.3,12.5h-8.8v-24.1H452.4z M448.9,484.5v15.4
				c0,0.5,0.3,0.6,0.6,0.6h2.6c5.4,0,8.1-3.2,8.1-8.4c0-5.2-2.8-7.6-8.1-7.6H448.9z"/>
			<path class="st0" d="M479,480.5h5l-3.9,9.8h-4.8L479,480.5z"/>
			<path class="st0" d="M505.5,505.1c-8.1,0-13.5-5.5-13.5-12.6c0-6.7,5.4-12.4,13.5-12.4c8.1,0,13.4,5.7,13.4,12.4
				C519,499.5,513.6,505.1,505.5,505.1z M505.5,484.5c-4.2,0-8,2.8-8,8c0,5.2,3.8,8.1,8,8.1c4.5,0,7.9-2.9,7.9-8.1
				C513.5,487.4,510,484.5,505.5,484.5z"/>
			<path class="st0" d="M540.9,492.4c3,0,4.6-1.8,4.6-4.1c0-2.3-1.5-3.8-4.6-3.8h-5c-0.2,0-0.5,0.2-0.5,0.5v19.6h-5.3v-24.1h11.4
				c6.1,0,9.5,3.2,9.5,7.4c0,4.4-2.8,6.5-6,7.2c2.4,2.3,5.8,6.5,8,9.4h-6.6c-3.1-4.1-6.6-8.1-9.6-11.1c-0.2-0.2-0.3-0.3-0.3-0.8
				v-0.3H540.9z"/>
		</g>
	</g>
</g>
</svg>
