<?xml version="1.0" encoding="utf-8"?>
<!-- Generator: Adobe Illustrator 21.0.0, SVG Export Plug-In . SVG Version: 6.00 Build 0)  -->
<svg version="1.1" id="Calque_1" xmlns="http://www.w3.org/2000/svg" xmlns:xlink="http://www.w3.org/1999/xlink" x="0px" y="0px"
	 viewBox="0 0 512 512" style="enable-background:new 0 0 512 512;" xml:space="preserve">
<style type="text/css">
	.st0{fill:#FFFFFF;}
</style>
<g>
	<path class="st0" d="M331.9,137.1c-4-3.1-8.2-5.8-12-8.3H193.1c-3.7,2.4-8,5.2-12.8,8.3C124.1,173,3,250.4,3,413.9
		C3,466.4,45.6,509,98.1,509h316.8c52.5,0,95.1-42.6,95.1-95.1C510,250.4,388.9,173,331.9,137.1z M312,440.3
		c-54,18.9-114.6-6.6-138.6-59c-3.8-8.2-8.2-10.9-16.4-10c-4.2,0.5-8.4,0.3-12.6,0c-7.2-0.6-12.3-4.4-11.9-12
		c0.3-6.9,4.9-10.6,12-10.7c5.9-0.1,11.8,0,18.1,0c0-8,0-15.2,0-23.4c-6.6,0-12.5,0.1-18.4,0c-7-0.2-11.5-4-11.8-10.9
		c-0.3-7,4.5-11.1,11.1-11.7c7.6-0.6,15.4-0.1,23.4-0.1c10.2-30.3,28.3-53.5,56.5-68c29.3-15,59.6-16.7,90.7-5.9
		c6.8,2.3,11,6.9,8.4,14.4c-2.4,7-7.7,9.6-15.1,7.1c-2-0.7-4.1-1.1-6.1-1.7c-27.6-7.2-53.6-3.9-77.3,12.5
		c-14.6,9.7-25.6,22.9-32.1,41.1c32.1,0,63,0,93.8,0c3.2,0,7.2-1.1,9.3,0.4c4,3,9.5,7.5,9.5,11.4c0,3.7-5.8,9.1-10,10.5
		c-5.7,1.9-12.5,0.6-18.8,0.6c-29.5,0-58.9,0-89.4,0c0,7.7,0,14.8,0,23.3c9.4,0,18.1,0,26.7,0c22.5,0,44.9,0.2,67.4-0.1
		c8-0.1,14.8,2.2,15,10.9c0.2,9.1-6.9,12.1-15.2,12.1c-28.1,0-56.1,0-86.3,0c3.2,5.7,5.4,10.4,8.3,14.5c22.1,31.1,62,44.8,98.8,34.1
		c1.3-0.4,2.7-0.9,4-1.3c7.9-2.6,15.3-2.3,18,6.9C325.6,434.1,319.1,437.8,312,440.3z"/>
	<path class="st0" d="M193.1,97.1h126.8l47-70.4c7-10.5-0.5-24.6-13.2-24.6H159.4c-12.7,0-20.2,14.1-13.2,24.6L193.1,97.1z"/>
</g>
</svg>
