<?xml version="1.0" encoding="utf-8"?>
<!-- Generator: Adobe Illustrator 21.0.0, SVG Export Plug-In . SVG Version: 6.00 Build 0)  -->
<svg version="1.1" id="Calque_1" xmlns="http://www.w3.org/2000/svg" xmlns:xlink="http://www.w3.org/1999/xlink" x="0px" y="0px"
	 viewBox="0 0 512 512" style="enable-background:new 0 0 512 512;" xml:space="preserve">
<style type="text/css">
	.st0{fill:#FFFFFF;}
</style>
<g>
	<path class="st0" d="M464.4,302c0.2,114-93.8,207.8-208.4,207.9S47.8,416.6,47.6,302.2C47.4,186,144.4,94.3,255.9,94.3
		C366.4,94.3,464.2,184.6,464.4,302z M255,121.4c-97.6,1.7-181.3,75.5-180.3,182.2c1.1,106.9,84.1,178.9,180.6,179.1
		c106.6,0.3,181.8-85.1,182-180.3C437.7,202.6,355.4,121,255,121.4z"/>
	<path class="st0" d="M255.9,31.5c-13.5,0-27-0.2-40.5,0.1c-6,0.1-8.2-2-8.3-8.2c-0.3-21.3-0.5-21.3,20.4-21.3
		c22.8,0,45.7,0.2,68.5-0.1c6.4-0.1,8.6,1.6,8.6,8.3c-0.1,21.1,0.1,21.1-20.7,21.1C274.6,31.5,265.2,31.5,255.9,31.5z"/>
	<path class="st0" d="M436,164.7c-7-7.9-13-14.6-18.7-21c7.8-7.6,15.6-15.1,25.1-24.3c4.2,4.9,9.5,10.6,14,16.7
		c1.1,1.5,1.1,5.4-0.1,6.7C450.1,150.2,443.1,157.2,436,164.7z"/>
	<path class="st0" d="M242.7,76.2c0-8.8,0-17.2,0-26.1c8.8,0,17.1,0,26.2,0c0,8.6,0,17.1,0,26.1C260.4,76.2,252.1,76.2,242.7,76.2z"
		/>
	<path class="st0" d="M397.6,312.4c-5.9-0.2-11.4-1.7-11.5-9s5.2-8.9,11.3-8.9c7,0,14,0,21,0c-1.1-80-71.2-152.7-154.7-154.4
		c0,6.5-0.2,13.1,0,19.6c0.2,6.2-1.4,11.5-8.5,11.7c-7.7,0.2-9.2-5.5-9.2-11.9c0-6.5,0-13,0-19.5c-92.9,4.7-153.7,87-151.9,154.4
		c5.7,0,11.5,0.1,17.2,0c6.3-0.1,12.4,1,12.5,8.6c0,8.1-6.4,9.3-12.9,9.4c-5.7,0-11.4,0-17.1,0c2.4,85.2,80.5,151.7,152.3,150.9
		c0-6.6,0-13.1,0-19.7c-0.1-6.1,2.5-10.9,8.7-10.9c6.6,0,9.2,4.8,9,11.3c-0.3,6.7-0.1,13.4-0.1,20.1
		c88.6-2.6,153.8-79.6,154.3-151.7C411.2,312.4,404.4,312.6,397.6,312.4z M305.6,386.6c-12.5,5.9-25.9,7.9-39.6,6.7
		c-35.7-2.9-61.8-20.5-77.7-52.8c-1.9-3.8-4.2-5.4-8.5-4.6c-4.6,0.8-9.2,0.4-13.6-0.9c-7.1-2-10.6-7.7-9.6-15.3
		c0.9-6.9,5.7-11.5,12.8-11.8c2.5-0.1,5.1-0.1,7.7,0c3,0.1,2.3-2.1,2.3-3.7s0.7-3.8-2.3-3.7c-2.4,0.1-4.9,0.1-7.3,0
		c-7.7-0.3-13-5.5-13.3-13c-0.4-8,4.5-13.9,12.4-14.7c3.7-0.4,7.4-0.6,11.1-0.3c3.4,0.2,4.8-1,6.1-4.1
		c12.3-29.7,34.4-48.2,65.5-55.7c17.6-4.2,35-2.4,51.9,3.7c8.3,3,11.6,9.7,9,17.6c-2.7,8-9.4,11.5-17.9,8.9
		c-15.8-4.8-31.6-5.9-47.2,0.8c-13.5,5.8-24.5,14.4-31.8,28.3c22.4,0,44.3,0.1,66.1,0c6.6,0,14.5,5,16.7,11.2
		c1.2,3.4,0.6,6.5-1.4,9.4c-4.5,6.3-10.8,8.5-18.3,8.2c-22.6-0.8-45.2-0.1-67.8-0.4c-3.4,0-2.2,2.2-2.5,3.9
		c-0.4,2.5,0.6,3.3,3.2,3.2c21.1-0.1,42.1-0.1,63.2,0c1.7,0,3.3,0.1,5,0.3c8.1,1.4,12.6,6.4,12.4,13.9c-0.1,7.5-5.2,12.9-13.2,13.9
		c-1.9,0.2-3.8,0.2-5.7,0.2c-16.7,0-33.5,0-50.2,0c-1.4,0-2.8,0-4.9,0c2.4,4.5,5.4,8,8.7,11c18.5,17,39.9,22.3,64.1,15.2
		c1.8-0.5,3.7-1.1,5.5-1.4c7.6-1.5,13.7,1.9,16.1,8.8C315.2,376.8,312.8,383.2,305.6,386.6z"/>
</g>
</svg>
